<?xml version="1.0" standalone="no"?><!DOCTYPE svg PUBLIC "-//W3C//DTD SVG 1.1//EN" "http://www.w3.org/Graphics/SVG/1.1/DTD/svg11.dtd"><svg t="1628146316044" class="icon" viewBox="0 0 1024 1024" version="1.1" xmlns="http://www.w3.org/2000/svg" p-id="2982" xmlns:xlink="http://www.w3.org/1999/xlink" width="200" height="200"><defs><style type="text/css"></style></defs><path d="M874.666667 149.333333C776.533333 51.2 648.533333 0 512 0S247.466667 51.2 149.333333 149.333333 0 375.466667 0 512s51.2 264.533333 149.333333 362.666667S375.466667 1024 512 1024s264.533333-51.2 362.666667-149.333333S1024 648.533333 1024 512s-51.2-264.533333-149.333333-362.666667z m-59.733334 665.6C733.866667 896 627.2 938.666667 512 938.666667s-221.866667-42.666667-302.933333-123.733334C128 733.866667 85.333333 627.2 85.333333 512s42.666667-221.866667 123.733334-302.933333C290.133333 128 396.8 85.333333 512 85.333333s221.866667 42.666667 302.933333 123.733334C896 290.133333 938.666667 396.8 938.666667 512s-42.666667 221.866667-123.733334 302.933333z" p-id="2983"></path><path d="M682.666667 341.333333c-17.066667-17.066667-42.666667-17.066667-59.733334 0L512 452.266667 405.333333 341.333333c-17.066667-12.8-46.933333-12.8-64 0s-17.066667 42.666667 0 59.733334l106.666667 106.666666L341.333333 618.666667c-17.066667 17.066667-17.066667 42.666667 0 59.733333 8.533333 8.533333 21.333333 12.8 29.866667 12.8s21.333333-4.266667 29.866667-12.8l106.666666-106.666667 106.666667 106.666667c8.533333 8.533333 21.333333 12.8 29.866667 12.8s21.333333-4.266667 29.866666-12.8c17.066667-17.066667 17.066667-42.666667 0-59.733333L571.733333 512 682.666667 405.333333c12.8-17.066667 12.8-46.933333 0-64z" p-id="2984"></path></svg>